<svg width="14" height="9" viewBox="0 0 14 9" fill="none" xmlns="http://www.w3.org/2000/svg">
<path fill-rule="evenodd" clip-rule="evenodd" d="M0 0.875C0 0.391749 0.391751 0 0.875 0H13.125C13.6082 0 14 0.391749 14 0.875C14 1.35825 13.6082 1.75 13.125 1.75H0.875C0.391751 1.75 0 1.35825 0 0.875ZM1.75 4.375C1.75 3.89177 2.14175 3.5 2.625 3.5H11.375C11.8582 3.5 12.25 3.89177 12.25 4.375C12.25 4.85823 11.8582 5.25 11.375 5.25H2.625C2.14175 5.25 1.75 4.85823 1.75 4.375ZM4.375 7C3.89175 7 3.5 7.39177 3.5 7.875C3.5 8.35823 3.89175 8.75 4.375 8.75H9.625C10.1082 8.75 10.5 8.35823 10.5 7.875C10.5 7.39177 10.1082 7 9.625 7H4.375Z" fill="#0D0C22"/>
</svg>
