<svg width="9" height="5" viewBox="0 0 9 5" fill="none" xmlns="http://www.w3.org/2000/svg">
<path d="M8.13604 1.15488C8.39908 0.890684 8.39908 0.462343 8.13604 0.198147C7.87296 -0.0660489 7.44642 -0.0660489 7.18333 0.198147L4.16663 3.22771L1.14998 0.198222C0.886909 -0.065974 0.460384 -0.065974 0.197309 0.198222C-0.0657698 0.462413 -0.0657698 0.890759 0.197309 1.15495L3.6805 4.65296C3.68367 4.65629 3.68692 4.65958 3.69021 4.66288C3.7765 4.74958 3.88042 4.80783 3.99042 4.83763C3.99308 4.83838 3.99579 4.83908 3.9985 4.83975C4.22167 4.89733 4.46842 4.83842 4.64313 4.66296C4.64746 4.65863 4.65171 4.65425 4.65592 4.64983L8.13604 1.15488Z" fill="#0D0C22"/>
</svg>
